<svg xmlns="http://www.w3.org/2000/svg" width="1280" height="800" viewBox="0 0 1280 800">
  <defs>
    <filter id="blur"><feGaussianBlur stdDeviation="18"/></filter>
    <filter id="shadow"><feDropShadow dx="0" dy="10" stdDeviation="26" flood-color="rgba(0,0,0,0.62)"/></filter>
    <linearGradient id="rose" x1="0" y1="0" x2="1" y2="1">
      <stop offset="0%" stop-color="#FF5CA8"/>
      <stop offset="100%" stop-color="#D77BFF"/>
    </linearGradient>
    <linearGradient id="roseSoft" x1="0" y1="0" x2="1" y2="1">
      <stop offset="0%" stop-color="#FF5CA8" stop-opacity="0.62"/>
      <stop offset="100%" stop-color="#D77BFF" stop-opacity="0.42"/>
    </linearGradient>
    <linearGradient id="glass" x1="0" y1="0" x2="1" y2="1">
      <stop offset="0%" stop-color="#24111f"/>
      <stop offset="100%" stop-color="#120914"/>
    </linearGradient>
    <linearGradient id="imageSurface" x1="0" y1="0" x2="1" y2="1">
      <stop offset="0%" stop-color="#f7d4de"/>
      <stop offset="52%" stop-color="#c98bb4"/>
      <stop offset="100%" stop-color="#6b355d"/>
    </linearGradient>
  </defs>

  <rect width="1280" height="800" fill="#0b060c"/>
  <ellipse cx="355" cy="220" rx="340" ry="230" fill="rgba(255,92,168,0.2)" filter="url(#blur)"/>
  <ellipse cx="910" cy="565" rx="310" ry="210" fill="rgba(215,123,255,0.14)" filter="url(#blur)"/>

  <rect x="118" y="78" width="1044" height="644" rx="16" fill="url(#glass)" stroke="rgba(255,255,255,0.08)" stroke-width="1" filter="url(#shadow)"/>
  <rect x="118" y="78" width="1044" height="46" rx="16" fill="#100910"/>
  <rect x="118" y="108" width="1044" height="16" fill="#100910"/>
  <circle cx="150" cy="102" r="6" fill="rgba(255,80,118,0.74)"/>
  <circle cx="170" cy="102" r="6" fill="rgba(255,160,210,0.68)"/>
  <circle cx="190" cy="102" r="6" fill="rgba(215,123,255,0.68)"/>
  <rect x="320" y="93" width="640" height="18" rx="9" fill="rgba(255,255,255,0.04)" stroke="rgba(255,255,255,0.06)" stroke-width="1"/>
  <rect x="338" y="100" width="142" height="6" rx="3" fill="rgba(255,255,255,0.18)"/>

  <rect x="148" y="148" width="944" height="548" rx="12" fill="#100b12" stroke="rgba(255,255,255,0.055)" stroke-width="1"/>

  <rect x="178" y="176" width="132" height="34" rx="9" fill="rgba(255,255,255,0.045)"/>
  <rect x="198" y="187" width="74" height="7" rx="3.5" fill="rgba(255,255,255,0.52)"/>
  <rect x="198" y="199" width="92" height="5" rx="2.5" fill="rgba(255,255,255,0.22)"/>
  <rect x="672" y="189" width="66" height="7" rx="3.5" fill="rgba(255,255,255,0.24)"/>
  <rect x="764" y="189" width="76" height="7" rx="3.5" fill="rgba(255,255,255,0.24)"/>
  <rect x="866" y="189" width="58" height="7" rx="3.5" fill="rgba(255,255,255,0.24)"/>
  <rect x="960" y="172" width="112" height="40" rx="20" fill="url(#rose)" opacity="0.92"/>
  <rect x="986" y="188" width="60" height="8" rx="4" fill="rgba(255,255,255,0.84)"/>

  <rect x="178" y="268" width="374" height="30" rx="15" fill="rgba(255,92,168,0.1)" stroke="rgba(255,92,168,0.22)" stroke-width="1"/>
  <circle cx="198" cy="283" r="4" fill="#FF5CA8"/>
  <rect x="212" y="280" width="132" height="6" rx="3" fill="rgba(255,255,255,0.4)"/>

  <rect x="178" y="342" width="356" height="36" rx="8" fill="rgba(255,255,255,0.88)"/>
  <rect x="178" y="398" width="292" height="28" rx="8" fill="url(#rose)"/>
  <rect x="178" y="466" width="356" height="8" rx="4" fill="rgba(255,255,255,0.22)"/>
  <rect x="178" y="494" width="334" height="8" rx="4" fill="rgba(255,255,255,0.16)"/>
  <rect x="178" y="522" width="280" height="8" rx="4" fill="rgba(255,255,255,0.12)"/>

  <rect x="178" y="584" width="142" height="44" rx="13" fill="url(#rose)"/>
  <rect x="344" y="584" width="152" height="44" rx="13" fill="rgba(255,255,255,0.04)" stroke="rgba(255,255,255,0.08)" stroke-width="1"/>
  <rect x="214" y="602" width="70" height="8" rx="4" fill="rgba(255,255,255,0.82)"/>
  <rect x="380" y="602" width="80" height="8" rx="4" fill="rgba(255,255,255,0.34)"/>

  <rect x="610" y="276" width="430" height="342" rx="22" fill="#1d121e" stroke="rgba(255,255,255,0.08)" stroke-width="1" filter="url(#shadow)"/>
  <rect x="642" y="308" width="366" height="278" rx="18" fill="#261a28"/>

  <rect x="668" y="332" width="316" height="204" rx="18" fill="url(#imageSurface)"/>
  <ellipse cx="740" cy="368" rx="128" ry="64" fill="rgba(255,255,255,0.28)"/>
  <ellipse cx="920" cy="504" rx="150" ry="82" fill="rgba(58,12,54,0.28)"/>
  <path d="M690 494 C748 438 790 442 828 492 S914 548 962 486" fill="none" stroke="rgba(255,255,255,0.36)" stroke-width="18" stroke-linecap="round"/>
  <path d="M706 512 C764 466 815 468 864 512 S922 538 958 506" fill="none" stroke="rgba(255,255,255,0.18)" stroke-width="10" stroke-linecap="round"/>
  <circle cx="906" cy="382" r="30" fill="rgba(255,255,255,0.34)"/>
  <circle cx="928" cy="386" r="12" fill="rgba(255,92,168,0.24)"/>

  <rect x="178" y="650" width="252" height="26" rx="13" fill="rgba(255,255,255,0.05)" stroke="rgba(255,255,255,0.07)" stroke-width="1"/>
  <rect x="198" y="659" width="42" height="8" rx="4" fill="rgba(255,255,255,0.84)"/>
  <circle cx="262" cy="663" r="4" fill="#FF5CA8"/>
  <circle cx="278" cy="663" r="4" fill="#FF5CA8"/>
  <circle cx="294" cy="663" r="4" fill="#FF5CA8"/>
  <circle cx="310" cy="663" r="4" fill="#D77BFF"/>
  <circle cx="326" cy="663" r="4" fill="#D77BFF"/>

  <rect x="148" y="706" width="944" height="1" fill="rgba(255,255,255,0.06)"/>
</svg>
