<svg xmlns="http://www.w3.org/2000/svg" width="1280" height="800" viewBox="0 0 1280 800" role="img" aria-labelledby="title desc">
  <title id="title">Website für Plan H Hypnosetherapie</title>
  <desc id="desc">Dunkel skizzierte Website-Referenz für Plan H mit coral-farbigem Website-Akzent und abstrahierter Hypnosetherapie-Startseite.</desc>
  <defs>
    <filter id="blur"><feGaussianBlur stdDeviation="18"/></filter>
    <filter id="shadow"><feDropShadow dx="0" dy="10" stdDeviation="26" flood-color="rgba(0,0,0,0.62)"/></filter>
    <linearGradient id="rose" x1="0" y1="0" x2="1" y2="1">
      <stop offset="0%" stop-color="#FF749E"/>
      <stop offset="52%" stop-color="#FF3DBB"/>
      <stop offset="100%" stop-color="#8B4DFF"/>
    </linearGradient>
    <linearGradient id="turquoise" x1="0" y1="0" x2="1" y2="1">
      <stop offset="0%" stop-color="#24D6E7"/>
      <stop offset="100%" stop-color="#00A6A6"/>
    </linearGradient>
    <linearGradient id="gold" x1="0" y1="0" x2="1" y2="1">
      <stop offset="0%" stop-color="#F7DB7A"/>
      <stop offset="100%" stop-color="#D7A94B"/>
    </linearGradient>
    <linearGradient id="glass" x1="0" y1="0" x2="1" y2="1">
      <stop offset="0%" stop-color="#24111f"/>
      <stop offset="100%" stop-color="#120914"/>
    </linearGradient>
    <linearGradient id="panel" x1="0" y1="0" x2="1" y2="1">
      <stop offset="0%" stop-color="#171018"/>
      <stop offset="100%" stop-color="#0d090f"/>
    </linearGradient>
    <linearGradient id="heroSurface" x1="0" y1="0" x2="1" y2="1">
      <stop offset="0%" stop-color="#17383b"/>
      <stop offset="55%" stop-color="#113036"/>
      <stop offset="100%" stop-color="#221628"/>
    </linearGradient>
  </defs>

  <rect width="1280" height="800" fill="#0b060c"/>
  <ellipse cx="355" cy="220" rx="340" ry="230" fill="rgba(255,46,99,0.2)" filter="url(#blur)"/>
  <ellipse cx="910" cy="565" rx="310" ry="210" fill="rgba(166,77,255,0.14)" filter="url(#blur)"/>
  <ellipse cx="1034" cy="318" rx="280" ry="180" fill="rgba(0,210,255,0.09)" filter="url(#blur)"/>

  <rect x="118" y="78" width="1044" height="644" rx="16" fill="url(#glass)" stroke="rgba(255,255,255,0.08)" stroke-width="1" filter="url(#shadow)"/>
  <rect x="118" y="78" width="1044" height="46" rx="16" fill="#100910"/>
  <rect x="118" y="108" width="1044" height="16" fill="#100910"/>
  <circle cx="150" cy="102" r="6" fill="rgba(255,46,99,0.76)"/>
  <circle cx="170" cy="102" r="6" fill="rgba(255,77,128,0.7)"/>
  <circle cx="190" cy="102" r="6" fill="rgba(166,77,255,0.7)"/>
  <rect x="320" y="93" width="640" height="18" rx="9" fill="rgba(255,255,255,0.04)" stroke="rgba(255,255,255,0.06)" stroke-width="1"/>
  <rect x="338" y="100" width="142" height="6" rx="3" fill="rgba(255,255,255,0.18)"/>

  <rect x="148" y="148" width="944" height="548" rx="12" fill="#100b12" stroke="rgba(255,255,255,0.055)" stroke-width="1"/>

  <rect x="178" y="176" width="132" height="34" rx="9" fill="rgba(255,255,255,0.045)"/>
  <rect x="198" y="187" width="70" height="7" rx="3.5" fill="rgba(255,255,255,0.52)"/>
  <rect x="198" y="199" width="90" height="5" rx="2.5" fill="rgba(255,255,255,0.22)"/>

  <rect x="668" y="189" width="64" height="7" rx="3.5" fill="rgba(255,255,255,0.24)"/>
  <rect x="760" y="189" width="76" height="7" rx="3.5" fill="rgba(255,255,255,0.24)"/>
  <rect x="864" y="189" width="58" height="7" rx="3.5" fill="rgba(255,255,255,0.24)"/>
  <rect x="960" y="172" width="112" height="40" rx="20" fill="url(#rose)" opacity="0.92"/>
  <rect x="986" y="188" width="60" height="8" rx="4" fill="rgba(255,255,255,0.84)"/>

  <rect x="178" y="250" width="414" height="392" rx="20" fill="url(#panel)" stroke="rgba(255,255,255,0.07)" stroke-width="1"/>
  <rect x="210" y="286" width="316" height="30" rx="15" fill="rgba(255,46,99,0.1)" stroke="rgba(255,46,99,0.26)" stroke-width="1"/>
  <circle cx="230" cy="301" r="4" fill="#FF3DBB"/>
  <rect x="244" y="298" width="208" height="6" rx="3" fill="rgba(255,255,255,0.42)"/>

  <rect x="210" y="358" width="326" height="34" rx="8" fill="rgba(255,255,255,0.88)"/>
  <rect x="210" y="410" width="266" height="28" rx="8" fill="url(#rose)"/>
  <rect x="210" y="476" width="326" height="8" rx="4" fill="rgba(255,255,255,0.22)"/>
  <rect x="210" y="504" width="304" height="8" rx="4" fill="rgba(255,255,255,0.16)"/>
  <rect x="210" y="532" width="248" height="8" rx="4" fill="rgba(255,255,255,0.12)"/>

  <rect x="210" y="586" width="136" height="42" rx="13" fill="url(#rose)"/>
  <rect x="370" y="586" width="146" height="42" rx="13" fill="rgba(255,255,255,0.04)" stroke="rgba(255,255,255,0.08)" stroke-width="1"/>
  <rect x="246" y="603" width="66" height="8" rx="4" fill="rgba(255,255,255,0.82)"/>
  <rect x="408" y="603" width="70" height="8" rx="4" fill="rgba(255,255,255,0.34)"/>

  <rect x="628" y="250" width="414" height="392" rx="22" fill="#1d121e" stroke="rgba(255,255,255,0.08)" stroke-width="1" filter="url(#shadow)"/>
  <rect x="660" y="282" width="350" height="328" rx="18" fill="url(#heroSurface)"/>

  <ellipse cx="840" cy="438" rx="178" ry="166" fill="rgba(255,255,255,0.08)" stroke="rgba(255,255,255,0.18)" stroke-width="2"/>
  <ellipse cx="854" cy="420" rx="135" ry="114" fill="rgba(114,255,237,0.13)" stroke="rgba(255,255,255,0.08)" stroke-width="1"/>
  <ellipse cx="780" cy="492" rx="62" ry="88" fill="url(#turquoise)" opacity="0.78" transform="rotate(-17 780 492)"/>
  <circle cx="936" cy="376" r="46" fill="rgba(197,255,244,0.16)"/>
  <circle cx="910" cy="528" r="36" fill="url(#gold)" opacity="0.76"/>
  <path d="M708 552c58-58 110-68 158-30 42 33 79 27 116-25" fill="none" stroke="rgba(255,255,255,0.35)" stroke-width="9" stroke-linecap="round"/>
  <path d="M724 566c58-45 104-48 150-12 36 28 70 24 100-14" fill="none" stroke="rgba(255,255,255,0.16)" stroke-width="6" stroke-linecap="round"/>

  <rect x="604" y="306" width="156" height="54" rx="27" fill="rgba(255,255,255,0.92)" filter="url(#shadow)"/>
  <rect x="628" y="326" width="13" height="13" rx="3" fill="none" stroke="#00C8D2" stroke-width="2"/>
  <path d="M632 332l3 3 7-8" fill="none" stroke="#00C8D2" stroke-width="2" stroke-linecap="round" stroke-linejoin="round"/>
  <rect x="654" y="326" width="72" height="8" rx="4" fill="#173333" opacity="0.92"/>
  <rect x="654" y="339" width="52" height="5" rx="2.5" fill="#173333" opacity="0.34"/>

  <rect x="606" y="568" width="190" height="64" rx="23" fill="rgba(255,255,255,0.9)" filter="url(#shadow)"/>
  <circle cx="644" cy="600" r="22" fill="#d5ad9b"/>
  <path d="M632 615c6-15 20-17 29 0" fill="#26302f" opacity="0.82"/>
  <circle cx="638" cy="597" r="2.6" fill="#182827"/>
  <circle cx="650" cy="597" r="2.6" fill="#182827"/>
  <rect x="678" y="590" width="82" height="10" rx="5" fill="#173333" opacity="0.95"/>
  <rect x="678" y="606" width="88" height="7" rx="3.5" fill="#008c96" opacity="0.82"/>

  <rect x="178" y="650" width="252" height="26" rx="13" fill="rgba(255,255,255,0.05)" stroke="rgba(255,255,255,0.07)" stroke-width="1"/>
  <rect x="198" y="659" width="42" height="8" rx="4" fill="rgba(255,255,255,0.84)"/>
  <circle cx="262" cy="663" r="4" fill="#FF749E"/>
  <circle cx="278" cy="663" r="4" fill="#FF749E"/>
  <circle cx="294" cy="663" r="4" fill="#FF3DBB"/>
  <circle cx="310" cy="663" r="4" fill="#8B4DFF"/>
  <circle cx="326" cy="663" r="4" fill="#8B4DFF"/>

  <rect x="148" y="706" width="944" height="1" fill="rgba(255,255,255,0.06)"/>
</svg>
